<svg viewBox="0 0 220 230" xmlns="http://www.w3.org/2000/svg"><g transform="translate(0,0)"><path d="M86 150 L70 214 L92 200 L104 150 Z" fill="#E8A33D"/><path d="M134 150 L150 214 L128 200 L116 150 Z" fill="#E8A33D"/><circle cx="190.0" cy="104.0" r="11" fill="#084A44"/><circle cx="186.1" cy="128.7" r="11" fill="#084A44"/><circle cx="174.7" cy="151.0" r="11" fill="#084A44"/><circle cx="157.0" cy="168.7" r="11" fill="#084A44"/><circle cx="134.7" cy="180.1" r="11" fill="#084A44"/><circle cx="110.0" cy="184.0" r="11" fill="#084A44"/><circle cx="85.3" cy="180.1" r="11" fill="#084A44"/><circle cx="63.0" cy="168.7" r="11" fill="#084A44"/><circle cx="45.3" cy="151.0" r="11" fill="#084A44"/><circle cx="33.9" cy="128.7" r="11" fill="#084A44"/><circle cx="30.0" cy="104.0" r="11" fill="#084A44"/><circle cx="33.9" cy="79.3" r="11" fill="#084A44"/><circle cx="45.3" cy="57.0" r="11" fill="#084A44"/><circle cx="63.0" cy="39.3" r="11" fill="#084A44"/><circle cx="85.3" cy="27.9" r="11" fill="#084A44"/><circle cx="110.0" cy="24.0" r="11" fill="#084A44"/><circle cx="134.7" cy="27.9" r="11" fill="#084A44"/><circle cx="157.0" cy="39.3" r="11" fill="#084A44"/><circle cx="174.7" cy="57.0" r="11" fill="#084A44"/><circle cx="186.1" cy="79.3" r="11" fill="#084A44"/><circle cx="110" cy="104" r="80" fill="#0B5F57"/><circle cx="110" cy="104" r="71" fill="none" stroke="#084A44" stroke-width="3" opacity="0.7"/><g transform="translate(78.9,31.7) scale(0.2260)"><path d="M96 172 C86 190 74 201 66 205 C71 197 75 189 79 182 C85 176 99 174 116 176 Z" fill="#FAF8F5"/><path d="M122 56 C160 56 189 86 189 124 C189 164 160 193 120 193 C82 193 55 164 55 126 C55 86 84 56 122 56 Z" fill="#FAF8F5"/><path d="M150 64 C150 42 130 28 106 33 C120 41 126 52 128 66 Z" fill="#FAF8F5"/><path d="M186 100 L216 108 L186 116 Z" fill="#E8A33D"/><circle cx="158" cy="98" r="12" fill="#0B5F57"/></g><g transform="translate(80.5,134.3) scale(0.0580,-0.0580)"><path d="M565 666Q591 653 595.5 625.0Q600 597 581 574Q568 556 547.5 554.0Q527 552 506 562Q482 573 455.5 579.0Q429 585 400 585Q346 585 303.5 568.0Q261 551 231.0 519.5Q201 488 185.5 445.0Q170 402 170 350Q170 289 187.5 244.0Q205 199 236.0 169.0Q267 139 309.0 124.5Q351 110 400 110Q427 110 454.0 115.0Q481 120 506 133Q527 143 547.5 140.0Q568 137 582 119Q602 94 596.5 67.5Q591 41 566 29Q540 16 512.5 7.5Q485 -1 457.0 -5.5Q429 -10 400 -10Q328 -10 263.5 13.0Q199 36 148.5 81.0Q98 126 69.0 193.5Q40 261 40 350Q40 427 66.5 492.0Q93 557 141.5 604.5Q190 652 256.0 678.5Q322 705 400 705Q444 705 486.0 695.0Q528 685 565 666ZM865 0Q837 0 819.0 17.5Q801 35 801 61V565L815 543L742 489Q728 478 707 478Q683 478 665.0 496.0Q647 514 647 539Q647 571 678 591L822 687Q832 694 844.5 697.0Q857 700 868 700Q897 700 914.0 682.5Q931 665 931 639V61Q931 35 912.5 17.5Q894 0 865 0Z" fill="#FAF8F5"/></g><path d="M83.0 146.0 L85.5 152.6 L92.5 152.9 L87.0 157.3 L88.9 164.1 L83.0 160.2 L77.1 164.1 L79.0 157.3 L73.5 152.9 L80.5 152.6 Z" fill="#F2B956"/><path d="M110.0 146.0 L112.5 152.6 L119.5 152.9 L114.0 157.3 L115.9 164.1 L110.0 160.2 L104.1 164.1 L106.0 157.3 L100.5 152.9 L107.5 152.6 Z" fill="#F2B956"/><path d="M137.0 146.0 L139.5 152.6 L146.5 152.9 L141.0 157.3 L142.9 164.1 L137.0 160.2 L131.1 164.1 L133.0 157.3 L127.5 152.9 L134.5 152.6 Z" fill="#F2B956"/></g></svg>