<svg viewBox="0 0 220 230" xmlns="http://www.w3.org/2000/svg"><g transform="translate(0,0)"><path d="M86 150 L70 214 L92 200 L104 150 Z" fill="#E8A33D"/><path d="M134 150 L150 214 L128 200 L116 150 Z" fill="#E8A33D"/><circle cx="190.0" cy="104.0" r="11" fill="#0B7E70"/><circle cx="186.1" cy="128.7" r="11" fill="#0B7E70"/><circle cx="174.7" cy="151.0" r="11" fill="#0B7E70"/><circle cx="157.0" cy="168.7" r="11" fill="#0B7E70"/><circle cx="134.7" cy="180.1" r="11" fill="#0B7E70"/><circle cx="110.0" cy="184.0" r="11" fill="#0B7E70"/><circle cx="85.3" cy="180.1" r="11" fill="#0B7E70"/><circle cx="63.0" cy="168.7" r="11" fill="#0B7E70"/><circle cx="45.3" cy="151.0" r="11" fill="#0B7E70"/><circle cx="33.9" cy="128.7" r="11" fill="#0B7E70"/><circle cx="30.0" cy="104.0" r="11" fill="#0B7E70"/><circle cx="33.9" cy="79.3" r="11" fill="#0B7E70"/><circle cx="45.3" cy="57.0" r="11" fill="#0B7E70"/><circle cx="63.0" cy="39.3" r="11" fill="#0B7E70"/><circle cx="85.3" cy="27.9" r="11" fill="#0B7E70"/><circle cx="110.0" cy="24.0" r="11" fill="#0B7E70"/><circle cx="134.7" cy="27.9" r="11" fill="#0B7E70"/><circle cx="157.0" cy="39.3" r="11" fill="#0B7E70"/><circle cx="174.7" cy="57.0" r="11" fill="#0B7E70"/><circle cx="186.1" cy="79.3" r="11" fill="#0B7E70"/><circle cx="110" cy="104" r="80" fill="#0F9D8C"/><circle cx="110" cy="104" r="71" fill="none" stroke="#0B7E70" stroke-width="3" opacity="0.7"/><g transform="translate(78.9,31.7) scale(0.2260)"><path d="M96 172 C86 190 74 201 66 205 C71 197 75 189 79 182 C85 176 99 174 116 176 Z" fill="#FAF8F5"/><path d="M122 56 C160 56 189 86 189 124 C189 164 160 193 120 193 C82 193 55 164 55 126 C55 86 84 56 122 56 Z" fill="#FAF8F5"/><path d="M150 64 C150 42 130 28 106 33 C120 41 126 52 128 66 Z" fill="#FAF8F5"/><path d="M186 100 L216 108 L186 116 Z" fill="#E8A33D"/><circle cx="158" cy="98" r="12" fill="#0F9D8C"/></g><g transform="translate(74.5,134.3) scale(0.0580,-0.0580)"><path d="M388 700Q484 700 531.0 655.0Q578 610 578 522Q578 475 555.0 439.5Q532 404 487.0 384.5Q442 365 376 365L380 410Q411 410 451.0 401.5Q491 393 528.5 371.5Q566 350 590.5 311.5Q615 273 615 213Q615 147 593.5 105.0Q572 63 537.0 40.0Q502 17 462.0 8.5Q422 0 385 0H136Q110 0 92.5 17.5Q75 35 75 61V639Q75 665 92.5 682.5Q110 700 136 700ZM370 582H192L205 598V417L193 426H373Q402 426 425.0 445.0Q448 464 448 500Q448 543 426.5 562.5Q405 582 370 582ZM378 308H196L205 316V105L195 115H385Q431 115 458.0 139.5Q485 164 485 213Q485 258 467.0 278.0Q449 298 424.0 303.0Q399 308 378 308ZM1113 110Q1137 110 1153.0 94.0Q1169 78 1169 54Q1169 31 1153.0 15.5Q1137 0 1113 0H773Q747 0 732.0 16.0Q717 32 717 57Q717 82 735 101L953 334Q990 374 1011.5 416.0Q1033 458 1033 489Q1033 539 1004.0 569.5Q975 600 927 600Q908 600 888.0 591.0Q868 582 849.5 566.0Q831 550 815 529Q803 513 791.0 509.0Q779 505 769 505Q747 505 728.5 521.5Q710 538 710 560Q710 577 721.5 593.0Q733 609 750 626Q775 651 806.0 670.0Q837 689 870.0 699.5Q903 710 934 710Q1001 710 1050.5 683.5Q1100 657 1127.0 608.5Q1154 560 1154 494Q1154 439 1121.5 371.5Q1089 304 1034 245L899 101L888 110Z" fill="#FAF8F5"/></g><path d="M96.5 146.0 L99.0 152.6 L106.0 152.9 L100.5 157.3 L102.4 164.1 L96.5 160.2 L90.6 164.1 L92.5 157.3 L87.0 152.9 L94.0 152.6 Z" fill="#E8A33D"/><path d="M123.5 146.0 L126.0 152.6 L133.0 152.9 L127.5 157.3 L129.4 164.1 L123.5 160.2 L117.6 164.1 L119.5 157.3 L114.0 152.9 L121.0 152.6 Z" fill="#E8A33D"/></g></svg>