<svg viewBox="0 0 1344 270" xmlns="http://www.w3.org/2000/svg"><rect width="1344" height="270" fill="#FAF8F5"/><g transform="translate(2.0,14)"><path d="M86 150 L70 214 L92 200 L104 150 Z" fill="#E8A33D"/><path d="M134 150 L150 214 L128 200 L116 150 Z" fill="#E8A33D"/><circle cx="190.0" cy="104.0" r="11" fill="#19B6A4"/><circle cx="186.1" cy="128.7" r="11" fill="#19B6A4"/><circle cx="174.7" cy="151.0" r="11" fill="#19B6A4"/><circle cx="157.0" cy="168.7" r="11" fill="#19B6A4"/><circle cx="134.7" cy="180.1" r="11" fill="#19B6A4"/><circle cx="110.0" cy="184.0" r="11" fill="#19B6A4"/><circle cx="85.3" cy="180.1" r="11" fill="#19B6A4"/><circle cx="63.0" cy="168.7" r="11" fill="#19B6A4"/><circle cx="45.3" cy="151.0" r="11" fill="#19B6A4"/><circle cx="33.9" cy="128.7" r="11" fill="#19B6A4"/><circle cx="30.0" cy="104.0" r="11" fill="#19B6A4"/><circle cx="33.9" cy="79.3" r="11" fill="#19B6A4"/><circle cx="45.3" cy="57.0" r="11" fill="#19B6A4"/><circle cx="63.0" cy="39.3" r="11" fill="#19B6A4"/><circle cx="85.3" cy="27.9" r="11" fill="#19B6A4"/><circle cx="110.0" cy="24.0" r="11" fill="#19B6A4"/><circle cx="134.7" cy="27.9" r="11" fill="#19B6A4"/><circle cx="157.0" cy="39.3" r="11" fill="#19B6A4"/><circle cx="174.7" cy="57.0" r="11" fill="#19B6A4"/><circle cx="186.1" cy="79.3" r="11" fill="#19B6A4"/><circle cx="110" cy="104" r="80" fill="#33D3C0"/><circle cx="110" cy="104" r="71" fill="none" stroke="#19B6A4" stroke-width="3" opacity="0.7"/><g transform="translate(78.9,31.7) scale(0.2260)"><path d="M96 172 C86 190 74 201 66 205 C71 197 75 189 79 182 C85 176 99 174 116 176 Z" fill="#0B5F57"/><path d="M122 56 C160 56 189 86 189 124 C189 164 160 193 120 193 C82 193 55 164 55 126 C55 86 84 56 122 56 Z" fill="#0B5F57"/><path d="M150 64 C150 42 130 28 106 33 C120 41 126 52 128 66 Z" fill="#0B5F57"/><path d="M186 100 L216 108 L186 116 Z" fill="#E8A33D"/><circle cx="158" cy="98" r="12" fill="#33D3C0"/></g><g transform="translate(80.2,134.3) scale(0.0580,-0.0580)"><path d="M332 543 116 35Q109 16 94.5 5.5Q80 -5 63 -5Q36 -5 23.0 10.0Q10 25 10 47Q10 56 13 66L262 664Q270 684 286.5 695.0Q303 706 322 704Q340 704 355.5 693.5Q371 683 378 664L624 78Q629 65 629 54Q629 27 611.5 11.0Q594 -5 573 -5Q555 -5 540.5 6.0Q526 17 518 36L303 537ZM147 157 202 272H472L491 157ZM877 0Q849 0 831.0 17.5Q813 35 813 61V565L827 543L754 489Q740 478 719 478Q695 478 677.0 496.0Q659 514 659 539Q659 571 690 591L834 687Q844 694 856.5 697.0Q869 700 880 700Q909 700 926.0 682.5Q943 665 943 639V61Q943 35 924.5 17.5Q906 0 877 0Z" fill="#0B5F57"/></g><path d="M110.0 146.0 L112.5 152.6 L119.5 152.9 L114.0 157.3 L115.9 164.1 L110.0 160.2 L104.1 164.1 L106.0 157.3 L100.5 152.9 L107.5 152.6 Z" fill="#E8A33D"/></g><g transform="translate(226.0,14)"><path d="M86 150 L70 214 L92 200 L104 150 Z" fill="#E8A33D"/><path d="M134 150 L150 214 L128 200 L116 150 Z" fill="#E8A33D"/><circle cx="190.0" cy="104.0" r="11" fill="#19B6A4"/><circle cx="186.1" cy="128.7" r="11" fill="#19B6A4"/><circle cx="174.7" cy="151.0" r="11" fill="#19B6A4"/><circle cx="157.0" cy="168.7" r="11" fill="#19B6A4"/><circle cx="134.7" cy="180.1" r="11" fill="#19B6A4"/><circle cx="110.0" cy="184.0" r="11" fill="#19B6A4"/><circle cx="85.3" cy="180.1" r="11" fill="#19B6A4"/><circle cx="63.0" cy="168.7" r="11" fill="#19B6A4"/><circle cx="45.3" cy="151.0" r="11" fill="#19B6A4"/><circle cx="33.9" cy="128.7" r="11" fill="#19B6A4"/><circle cx="30.0" cy="104.0" r="11" fill="#19B6A4"/><circle cx="33.9" cy="79.3" r="11" fill="#19B6A4"/><circle cx="45.3" cy="57.0" r="11" fill="#19B6A4"/><circle cx="63.0" cy="39.3" r="11" fill="#19B6A4"/><circle cx="85.3" cy="27.9" r="11" fill="#19B6A4"/><circle cx="110.0" cy="24.0" r="11" fill="#19B6A4"/><circle cx="134.7" cy="27.9" r="11" fill="#19B6A4"/><circle cx="157.0" cy="39.3" r="11" fill="#19B6A4"/><circle cx="174.7" cy="57.0" r="11" fill="#19B6A4"/><circle cx="186.1" cy="79.3" r="11" fill="#19B6A4"/><circle cx="110" cy="104" r="80" fill="#33D3C0"/><circle cx="110" cy="104" r="71" fill="none" stroke="#19B6A4" stroke-width="3" opacity="0.7"/><g transform="translate(78.9,31.7) scale(0.2260)"><path d="M96 172 C86 190 74 201 66 205 C71 197 75 189 79 182 C85 176 99 174 116 176 Z" fill="#0B5F57"/><path d="M122 56 C160 56 189 86 189 124 C189 164 160 193 120 193 C82 193 55 164 55 126 C55 86 84 56 122 56 Z" fill="#0B5F57"/><path d="M150 64 C150 42 130 28 106 33 C120 41 126 52 128 66 Z" fill="#0B5F57"/><path d="M186 100 L216 108 L186 116 Z" fill="#E8A33D"/><circle cx="158" cy="98" r="12" fill="#33D3C0"/></g><g transform="translate(75.0,134.3) scale(0.0580,-0.0580)"><path d="M332 543 116 35Q109 16 94.5 5.5Q80 -5 63 -5Q36 -5 23.0 10.0Q10 25 10 47Q10 56 13 66L262 664Q270 684 286.5 695.0Q303 706 322 704Q340 704 355.5 693.5Q371 683 378 664L624 78Q629 65 629 54Q629 27 611.5 11.0Q594 -5 573 -5Q555 -5 540.5 6.0Q526 17 518 36L303 537ZM147 157 202 272H472L491 157ZM1097 110Q1121 110 1137.0 94.0Q1153 78 1153 54Q1153 31 1137.0 15.5Q1121 0 1097 0H757Q731 0 716.0 16.0Q701 32 701 57Q701 82 719 101L937 334Q974 374 995.5 416.0Q1017 458 1017 489Q1017 539 988.0 569.5Q959 600 911 600Q892 600 872.0 591.0Q852 582 833.5 566.0Q815 550 799 529Q787 513 775.0 509.0Q763 505 753 505Q731 505 712.5 521.5Q694 538 694 560Q694 577 705.5 593.0Q717 609 734 626Q759 651 790.0 670.0Q821 689 854.0 699.5Q887 710 918 710Q985 710 1034.5 683.5Q1084 657 1111.0 608.5Q1138 560 1138 494Q1138 439 1105.5 371.5Q1073 304 1018 245L883 101L872 110Z" fill="#0B5F57"/></g><path d="M110.0 146.0 L112.5 152.6 L119.5 152.9 L114.0 157.3 L115.9 164.1 L110.0 160.2 L104.1 164.1 L106.0 157.3 L100.5 152.9 L107.5 152.6 Z" fill="#E8A33D"/></g><g transform="translate(450.0,14)"><path d="M86 150 L70 214 L92 200 L104 150 Z" fill="#E8A33D"/><path d="M134 150 L150 214 L128 200 L116 150 Z" fill="#E8A33D"/><circle cx="190.0" cy="104.0" r="11" fill="#0B7E70"/><circle cx="186.1" cy="128.7" r="11" fill="#0B7E70"/><circle cx="174.7" cy="151.0" r="11" fill="#0B7E70"/><circle cx="157.0" cy="168.7" r="11" fill="#0B7E70"/><circle cx="134.7" cy="180.1" r="11" fill="#0B7E70"/><circle cx="110.0" cy="184.0" r="11" fill="#0B7E70"/><circle cx="85.3" cy="180.1" r="11" fill="#0B7E70"/><circle cx="63.0" cy="168.7" r="11" fill="#0B7E70"/><circle cx="45.3" cy="151.0" r="11" fill="#0B7E70"/><circle cx="33.9" cy="128.7" r="11" fill="#0B7E70"/><circle cx="30.0" cy="104.0" r="11" fill="#0B7E70"/><circle cx="33.9" cy="79.3" r="11" fill="#0B7E70"/><circle cx="45.3" cy="57.0" r="11" fill="#0B7E70"/><circle cx="63.0" cy="39.3" r="11" fill="#0B7E70"/><circle cx="85.3" cy="27.9" r="11" fill="#0B7E70"/><circle cx="110.0" cy="24.0" r="11" fill="#0B7E70"/><circle cx="134.7" cy="27.9" r="11" fill="#0B7E70"/><circle cx="157.0" cy="39.3" r="11" fill="#0B7E70"/><circle cx="174.7" cy="57.0" r="11" fill="#0B7E70"/><circle cx="186.1" cy="79.3" r="11" fill="#0B7E70"/><circle cx="110" cy="104" r="80" fill="#0F9D8C"/><circle cx="110" cy="104" r="71" fill="none" stroke="#0B7E70" stroke-width="3" opacity="0.7"/><g transform="translate(78.9,31.7) scale(0.2260)"><path d="M96 172 C86 190 74 201 66 205 C71 197 75 189 79 182 C85 176 99 174 116 176 Z" fill="#FAF8F5"/><path d="M122 56 C160 56 189 86 189 124 C189 164 160 193 120 193 C82 193 55 164 55 126 C55 86 84 56 122 56 Z" fill="#FAF8F5"/><path d="M150 64 C150 42 130 28 106 33 C120 41 126 52 128 66 Z" fill="#FAF8F5"/><path d="M186 100 L216 108 L186 116 Z" fill="#E8A33D"/><circle cx="158" cy="98" r="12" fill="#0F9D8C"/></g><g transform="translate(79.7,134.3) scale(0.0580,-0.0580)"><path d="M388 700Q484 700 531.0 655.0Q578 610 578 522Q578 475 555.0 439.5Q532 404 487.0 384.5Q442 365 376 365L380 410Q411 410 451.0 401.5Q491 393 528.5 371.5Q566 350 590.5 311.5Q615 273 615 213Q615 147 593.5 105.0Q572 63 537.0 40.0Q502 17 462.0 8.5Q422 0 385 0H136Q110 0 92.5 17.5Q75 35 75 61V639Q75 665 92.5 682.5Q110 700 136 700ZM370 582H192L205 598V417L193 426H373Q402 426 425.0 445.0Q448 464 448 500Q448 543 426.5 562.5Q405 582 370 582ZM378 308H196L205 316V105L195 115H385Q431 115 458.0 139.5Q485 164 485 213Q485 258 467.0 278.0Q449 298 424.0 303.0Q399 308 378 308ZM893 0Q865 0 847.0 17.5Q829 35 829 61V565L843 543L770 489Q756 478 735 478Q711 478 693.0 496.0Q675 514 675 539Q675 571 706 591L850 687Q860 694 872.5 697.0Q885 700 896 700Q925 700 942.0 682.5Q959 665 959 639V61Q959 35 940.5 17.5Q922 0 893 0Z" fill="#FAF8F5"/></g><path d="M96.5 146.0 L99.0 152.6 L106.0 152.9 L100.5 157.3 L102.4 164.1 L96.5 160.2 L90.6 164.1 L92.5 157.3 L87.0 152.9 L94.0 152.6 Z" fill="#E8A33D"/><path d="M123.5 146.0 L126.0 152.6 L133.0 152.9 L127.5 157.3 L129.4 164.1 L123.5 160.2 L117.6 164.1 L119.5 157.3 L114.0 152.9 L121.0 152.6 Z" fill="#E8A33D"/></g><g transform="translate(674.0,14)"><path d="M86 150 L70 214 L92 200 L104 150 Z" fill="#E8A33D"/><path d="M134 150 L150 214 L128 200 L116 150 Z" fill="#E8A33D"/><circle cx="190.0" cy="104.0" r="11" fill="#0B7E70"/><circle cx="186.1" cy="128.7" r="11" fill="#0B7E70"/><circle cx="174.7" cy="151.0" r="11" fill="#0B7E70"/><circle cx="157.0" cy="168.7" r="11" fill="#0B7E70"/><circle cx="134.7" cy="180.1" r="11" fill="#0B7E70"/><circle cx="110.0" cy="184.0" r="11" fill="#0B7E70"/><circle cx="85.3" cy="180.1" r="11" fill="#0B7E70"/><circle cx="63.0" cy="168.7" r="11" fill="#0B7E70"/><circle cx="45.3" cy="151.0" r="11" fill="#0B7E70"/><circle cx="33.9" cy="128.7" r="11" fill="#0B7E70"/><circle cx="30.0" cy="104.0" r="11" fill="#0B7E70"/><circle cx="33.9" cy="79.3" r="11" fill="#0B7E70"/><circle cx="45.3" cy="57.0" r="11" fill="#0B7E70"/><circle cx="63.0" cy="39.3" r="11" fill="#0B7E70"/><circle cx="85.3" cy="27.9" r="11" fill="#0B7E70"/><circle cx="110.0" cy="24.0" r="11" fill="#0B7E70"/><circle cx="134.7" cy="27.9" r="11" fill="#0B7E70"/><circle cx="157.0" cy="39.3" r="11" fill="#0B7E70"/><circle cx="174.7" cy="57.0" r="11" fill="#0B7E70"/><circle cx="186.1" cy="79.3" r="11" fill="#0B7E70"/><circle cx="110" cy="104" r="80" fill="#0F9D8C"/><circle cx="110" cy="104" r="71" fill="none" stroke="#0B7E70" stroke-width="3" opacity="0.7"/><g transform="translate(78.9,31.7) scale(0.2260)"><path d="M96 172 C86 190 74 201 66 205 C71 197 75 189 79 182 C85 176 99 174 116 176 Z" fill="#FAF8F5"/><path d="M122 56 C160 56 189 86 189 124 C189 164 160 193 120 193 C82 193 55 164 55 126 C55 86 84 56 122 56 Z" fill="#FAF8F5"/><path d="M150 64 C150 42 130 28 106 33 C120 41 126 52 128 66 Z" fill="#FAF8F5"/><path d="M186 100 L216 108 L186 116 Z" fill="#E8A33D"/><circle cx="158" cy="98" r="12" fill="#0F9D8C"/></g><g transform="translate(74.5,134.3) scale(0.0580,-0.0580)"><path d="M388 700Q484 700 531.0 655.0Q578 610 578 522Q578 475 555.0 439.5Q532 404 487.0 384.5Q442 365 376 365L380 410Q411 410 451.0 401.5Q491 393 528.5 371.5Q566 350 590.5 311.5Q615 273 615 213Q615 147 593.5 105.0Q572 63 537.0 40.0Q502 17 462.0 8.5Q422 0 385 0H136Q110 0 92.5 17.5Q75 35 75 61V639Q75 665 92.5 682.5Q110 700 136 700ZM370 582H192L205 598V417L193 426H373Q402 426 425.0 445.0Q448 464 448 500Q448 543 426.5 562.5Q405 582 370 582ZM378 308H196L205 316V105L195 115H385Q431 115 458.0 139.5Q485 164 485 213Q485 258 467.0 278.0Q449 298 424.0 303.0Q399 308 378 308ZM1113 110Q1137 110 1153.0 94.0Q1169 78 1169 54Q1169 31 1153.0 15.5Q1137 0 1113 0H773Q747 0 732.0 16.0Q717 32 717 57Q717 82 735 101L953 334Q990 374 1011.5 416.0Q1033 458 1033 489Q1033 539 1004.0 569.5Q975 600 927 600Q908 600 888.0 591.0Q868 582 849.5 566.0Q831 550 815 529Q803 513 791.0 509.0Q779 505 769 505Q747 505 728.5 521.5Q710 538 710 560Q710 577 721.5 593.0Q733 609 750 626Q775 651 806.0 670.0Q837 689 870.0 699.5Q903 710 934 710Q1001 710 1050.5 683.5Q1100 657 1127.0 608.5Q1154 560 1154 494Q1154 439 1121.5 371.5Q1089 304 1034 245L899 101L888 110Z" fill="#FAF8F5"/></g><path d="M96.5 146.0 L99.0 152.6 L106.0 152.9 L100.5 157.3 L102.4 164.1 L96.5 160.2 L90.6 164.1 L92.5 157.3 L87.0 152.9 L94.0 152.6 Z" fill="#E8A33D"/><path d="M123.5 146.0 L126.0 152.6 L133.0 152.9 L127.5 157.3 L129.4 164.1 L123.5 160.2 L117.6 164.1 L119.5 157.3 L114.0 152.9 L121.0 152.6 Z" fill="#E8A33D"/></g><g transform="translate(898.0,14)"><path d="M86 150 L70 214 L92 200 L104 150 Z" fill="#E8A33D"/><path d="M134 150 L150 214 L128 200 L116 150 Z" fill="#E8A33D"/><circle cx="190.0" cy="104.0" r="11" fill="#084A44"/><circle cx="186.1" cy="128.7" r="11" fill="#084A44"/><circle cx="174.7" cy="151.0" r="11" fill="#084A44"/><circle cx="157.0" cy="168.7" r="11" fill="#084A44"/><circle cx="134.7" cy="180.1" r="11" fill="#084A44"/><circle cx="110.0" cy="184.0" r="11" fill="#084A44"/><circle cx="85.3" cy="180.1" r="11" fill="#084A44"/><circle cx="63.0" cy="168.7" r="11" fill="#084A44"/><circle cx="45.3" cy="151.0" r="11" fill="#084A44"/><circle cx="33.9" cy="128.7" r="11" fill="#084A44"/><circle cx="30.0" cy="104.0" r="11" fill="#084A44"/><circle cx="33.9" cy="79.3" r="11" fill="#084A44"/><circle cx="45.3" cy="57.0" r="11" fill="#084A44"/><circle cx="63.0" cy="39.3" r="11" fill="#084A44"/><circle cx="85.3" cy="27.9" r="11" fill="#084A44"/><circle cx="110.0" cy="24.0" r="11" fill="#084A44"/><circle cx="134.7" cy="27.9" r="11" fill="#084A44"/><circle cx="157.0" cy="39.3" r="11" fill="#084A44"/><circle cx="174.7" cy="57.0" r="11" fill="#084A44"/><circle cx="186.1" cy="79.3" r="11" fill="#084A44"/><circle cx="110" cy="104" r="80" fill="#0B5F57"/><circle cx="110" cy="104" r="71" fill="none" stroke="#084A44" stroke-width="3" opacity="0.7"/><g transform="translate(78.9,31.7) scale(0.2260)"><path d="M96 172 C86 190 74 201 66 205 C71 197 75 189 79 182 C85 176 99 174 116 176 Z" fill="#FAF8F5"/><path d="M122 56 C160 56 189 86 189 124 C189 164 160 193 120 193 C82 193 55 164 55 126 C55 86 84 56 122 56 Z" fill="#FAF8F5"/><path d="M150 64 C150 42 130 28 106 33 C120 41 126 52 128 66 Z" fill="#FAF8F5"/><path d="M186 100 L216 108 L186 116 Z" fill="#E8A33D"/><circle cx="158" cy="98" r="12" fill="#0B5F57"/></g><g transform="translate(80.5,134.3) scale(0.0580,-0.0580)"><path d="M565 666Q591 653 595.5 625.0Q600 597 581 574Q568 556 547.5 554.0Q527 552 506 562Q482 573 455.5 579.0Q429 585 400 585Q346 585 303.5 568.0Q261 551 231.0 519.5Q201 488 185.5 445.0Q170 402 170 350Q170 289 187.5 244.0Q205 199 236.0 169.0Q267 139 309.0 124.5Q351 110 400 110Q427 110 454.0 115.0Q481 120 506 133Q527 143 547.5 140.0Q568 137 582 119Q602 94 596.5 67.5Q591 41 566 29Q540 16 512.5 7.5Q485 -1 457.0 -5.5Q429 -10 400 -10Q328 -10 263.5 13.0Q199 36 148.5 81.0Q98 126 69.0 193.5Q40 261 40 350Q40 427 66.5 492.0Q93 557 141.5 604.5Q190 652 256.0 678.5Q322 705 400 705Q444 705 486.0 695.0Q528 685 565 666ZM865 0Q837 0 819.0 17.5Q801 35 801 61V565L815 543L742 489Q728 478 707 478Q683 478 665.0 496.0Q647 514 647 539Q647 571 678 591L822 687Q832 694 844.5 697.0Q857 700 868 700Q897 700 914.0 682.5Q931 665 931 639V61Q931 35 912.5 17.5Q894 0 865 0Z" fill="#FAF8F5"/></g><path d="M83.0 146.0 L85.5 152.6 L92.5 152.9 L87.0 157.3 L88.9 164.1 L83.0 160.2 L77.1 164.1 L79.0 157.3 L73.5 152.9 L80.5 152.6 Z" fill="#F2B956"/><path d="M110.0 146.0 L112.5 152.6 L119.5 152.9 L114.0 157.3 L115.9 164.1 L110.0 160.2 L104.1 164.1 L106.0 157.3 L100.5 152.9 L107.5 152.6 Z" fill="#F2B956"/><path d="M137.0 146.0 L139.5 152.6 L146.5 152.9 L141.0 157.3 L142.9 164.1 L137.0 160.2 L131.1 164.1 L133.0 157.3 L127.5 152.9 L134.5 152.6 Z" fill="#F2B956"/></g><g transform="translate(1122.0,14)"><path d="M86 150 L70 214 L92 200 L104 150 Z" fill="#E8A33D"/><path d="M134 150 L150 214 L128 200 L116 150 Z" fill="#E8A33D"/><circle cx="190.0" cy="104.0" r="11" fill="#084A44"/><circle cx="186.1" cy="128.7" r="11" fill="#084A44"/><circle cx="174.7" cy="151.0" r="11" fill="#084A44"/><circle cx="157.0" cy="168.7" r="11" fill="#084A44"/><circle cx="134.7" cy="180.1" r="11" fill="#084A44"/><circle cx="110.0" cy="184.0" r="11" fill="#084A44"/><circle cx="85.3" cy="180.1" r="11" fill="#084A44"/><circle cx="63.0" cy="168.7" r="11" fill="#084A44"/><circle cx="45.3" cy="151.0" r="11" fill="#084A44"/><circle cx="33.9" cy="128.7" r="11" fill="#084A44"/><circle cx="30.0" cy="104.0" r="11" fill="#084A44"/><circle cx="33.9" cy="79.3" r="11" fill="#084A44"/><circle cx="45.3" cy="57.0" r="11" fill="#084A44"/><circle cx="63.0" cy="39.3" r="11" fill="#084A44"/><circle cx="85.3" cy="27.9" r="11" fill="#084A44"/><circle cx="110.0" cy="24.0" r="11" fill="#084A44"/><circle cx="134.7" cy="27.9" r="11" fill="#084A44"/><circle cx="157.0" cy="39.3" r="11" fill="#084A44"/><circle cx="174.7" cy="57.0" r="11" fill="#084A44"/><circle cx="186.1" cy="79.3" r="11" fill="#084A44"/><circle cx="110" cy="104" r="80" fill="#0B5F57"/><circle cx="110" cy="104" r="71" fill="none" stroke="#084A44" stroke-width="3" opacity="0.7"/><g transform="translate(78.9,31.7) scale(0.2260)"><path d="M96 172 C86 190 74 201 66 205 C71 197 75 189 79 182 C85 176 99 174 116 176 Z" fill="#FAF8F5"/><path d="M122 56 C160 56 189 86 189 124 C189 164 160 193 120 193 C82 193 55 164 55 126 C55 86 84 56 122 56 Z" fill="#FAF8F5"/><path d="M150 64 C150 42 130 28 106 33 C120 41 126 52 128 66 Z" fill="#FAF8F5"/><path d="M186 100 L216 108 L186 116 Z" fill="#E8A33D"/><circle cx="158" cy="98" r="12" fill="#0B5F57"/></g><g transform="translate(75.3,134.3) scale(0.0580,-0.0580)"><path d="M565 666Q591 653 595.5 625.0Q600 597 581 574Q568 556 547.5 554.0Q527 552 506 562Q482 573 455.5 579.0Q429 585 400 585Q346 585 303.5 568.0Q261 551 231.0 519.5Q201 488 185.5 445.0Q170 402 170 350Q170 289 187.5 244.0Q205 199 236.0 169.0Q267 139 309.0 124.5Q351 110 400 110Q427 110 454.0 115.0Q481 120 506 133Q527 143 547.5 140.0Q568 137 582 119Q602 94 596.5 67.5Q591 41 566 29Q540 16 512.5 7.5Q485 -1 457.0 -5.5Q429 -10 400 -10Q328 -10 263.5 13.0Q199 36 148.5 81.0Q98 126 69.0 193.5Q40 261 40 350Q40 427 66.5 492.0Q93 557 141.5 604.5Q190 652 256.0 678.5Q322 705 400 705Q444 705 486.0 695.0Q528 685 565 666ZM1085 110Q1109 110 1125.0 94.0Q1141 78 1141 54Q1141 31 1125.0 15.5Q1109 0 1085 0H745Q719 0 704.0 16.0Q689 32 689 57Q689 82 707 101L925 334Q962 374 983.5 416.0Q1005 458 1005 489Q1005 539 976.0 569.5Q947 600 899 600Q880 600 860.0 591.0Q840 582 821.5 566.0Q803 550 787 529Q775 513 763.0 509.0Q751 505 741 505Q719 505 700.5 521.5Q682 538 682 560Q682 577 693.5 593.0Q705 609 722 626Q747 651 778.0 670.0Q809 689 842.0 699.5Q875 710 906 710Q973 710 1022.5 683.5Q1072 657 1099.0 608.5Q1126 560 1126 494Q1126 439 1093.5 371.5Q1061 304 1006 245L871 101L860 110Z" fill="#FAF8F5"/></g><path d="M83.0 146.0 L85.5 152.6 L92.5 152.9 L87.0 157.3 L88.9 164.1 L83.0 160.2 L77.1 164.1 L79.0 157.3 L73.5 152.9 L80.5 152.6 Z" fill="#F2B956"/><path d="M110.0 146.0 L112.5 152.6 L119.5 152.9 L114.0 157.3 L115.9 164.1 L110.0 160.2 L104.1 164.1 L106.0 157.3 L100.5 152.9 L107.5 152.6 Z" fill="#F2B956"/><path d="M137.0 146.0 L139.5 152.6 L146.5 152.9 L141.0 157.3 L142.9 164.1 L137.0 160.2 L131.1 164.1 L133.0 157.3 L127.5 152.9 L134.5 152.6 Z" fill="#F2B956"/></g></svg>