<svg viewBox="0 0 220 230" xmlns="http://www.w3.org/2000/svg"><g transform="translate(0,0)"><path d="M86 150 L70 214 L92 200 L104 150 Z" fill="#E8A33D"/><path d="M134 150 L150 214 L128 200 L116 150 Z" fill="#E8A33D"/><circle cx="190.0" cy="104.0" r="11" fill="#084A44"/><circle cx="186.1" cy="128.7" r="11" fill="#084A44"/><circle cx="174.7" cy="151.0" r="11" fill="#084A44"/><circle cx="157.0" cy="168.7" r="11" fill="#084A44"/><circle cx="134.7" cy="180.1" r="11" fill="#084A44"/><circle cx="110.0" cy="184.0" r="11" fill="#084A44"/><circle cx="85.3" cy="180.1" r="11" fill="#084A44"/><circle cx="63.0" cy="168.7" r="11" fill="#084A44"/><circle cx="45.3" cy="151.0" r="11" fill="#084A44"/><circle cx="33.9" cy="128.7" r="11" fill="#084A44"/><circle cx="30.0" cy="104.0" r="11" fill="#084A44"/><circle cx="33.9" cy="79.3" r="11" fill="#084A44"/><circle cx="45.3" cy="57.0" r="11" fill="#084A44"/><circle cx="63.0" cy="39.3" r="11" fill="#084A44"/><circle cx="85.3" cy="27.9" r="11" fill="#084A44"/><circle cx="110.0" cy="24.0" r="11" fill="#084A44"/><circle cx="134.7" cy="27.9" r="11" fill="#084A44"/><circle cx="157.0" cy="39.3" r="11" fill="#084A44"/><circle cx="174.7" cy="57.0" r="11" fill="#084A44"/><circle cx="186.1" cy="79.3" r="11" fill="#084A44"/><circle cx="110" cy="104" r="80" fill="#0B5F57"/><circle cx="110" cy="104" r="71" fill="none" stroke="#084A44" stroke-width="3" opacity="0.7"/><g transform="translate(78.9,31.7) scale(0.2260)"><path d="M96 172 C86 190 74 201 66 205 C71 197 75 189 79 182 C85 176 99 174 116 176 Z" fill="#FAF8F5"/><path d="M122 56 C160 56 189 86 189 124 C189 164 160 193 120 193 C82 193 55 164 55 126 C55 86 84 56 122 56 Z" fill="#FAF8F5"/><path d="M150 64 C150 42 130 28 106 33 C120 41 126 52 128 66 Z" fill="#FAF8F5"/><path d="M186 100 L216 108 L186 116 Z" fill="#E8A33D"/><circle cx="158" cy="98" r="12" fill="#0B5F57"/></g><g transform="translate(75.3,134.3) scale(0.0580,-0.0580)"><path d="M565 666Q591 653 595.5 625.0Q600 597 581 574Q568 556 547.5 554.0Q527 552 506 562Q482 573 455.5 579.0Q429 585 400 585Q346 585 303.5 568.0Q261 551 231.0 519.5Q201 488 185.5 445.0Q170 402 170 350Q170 289 187.5 244.0Q205 199 236.0 169.0Q267 139 309.0 124.5Q351 110 400 110Q427 110 454.0 115.0Q481 120 506 133Q527 143 547.5 140.0Q568 137 582 119Q602 94 596.5 67.5Q591 41 566 29Q540 16 512.5 7.5Q485 -1 457.0 -5.5Q429 -10 400 -10Q328 -10 263.5 13.0Q199 36 148.5 81.0Q98 126 69.0 193.5Q40 261 40 350Q40 427 66.5 492.0Q93 557 141.5 604.5Q190 652 256.0 678.5Q322 705 400 705Q444 705 486.0 695.0Q528 685 565 666ZM1085 110Q1109 110 1125.0 94.0Q1141 78 1141 54Q1141 31 1125.0 15.5Q1109 0 1085 0H745Q719 0 704.0 16.0Q689 32 689 57Q689 82 707 101L925 334Q962 374 983.5 416.0Q1005 458 1005 489Q1005 539 976.0 569.5Q947 600 899 600Q880 600 860.0 591.0Q840 582 821.5 566.0Q803 550 787 529Q775 513 763.0 509.0Q751 505 741 505Q719 505 700.5 521.5Q682 538 682 560Q682 577 693.5 593.0Q705 609 722 626Q747 651 778.0 670.0Q809 689 842.0 699.5Q875 710 906 710Q973 710 1022.5 683.5Q1072 657 1099.0 608.5Q1126 560 1126 494Q1126 439 1093.5 371.5Q1061 304 1006 245L871 101L860 110Z" fill="#FAF8F5"/></g><path d="M83.0 146.0 L85.5 152.6 L92.5 152.9 L87.0 157.3 L88.9 164.1 L83.0 160.2 L77.1 164.1 L79.0 157.3 L73.5 152.9 L80.5 152.6 Z" fill="#F2B956"/><path d="M110.0 146.0 L112.5 152.6 L119.5 152.9 L114.0 157.3 L115.9 164.1 L110.0 160.2 L104.1 164.1 L106.0 157.3 L100.5 152.9 L107.5 152.6 Z" fill="#F2B956"/><path d="M137.0 146.0 L139.5 152.6 L146.5 152.9 L141.0 157.3 L142.9 164.1 L137.0 160.2 L131.1 164.1 L133.0 157.3 L127.5 152.9 L134.5 152.6 Z" fill="#F2B956"/></g></svg>