<svg viewBox="0 0 220 230" xmlns="http://www.w3.org/2000/svg"><g transform="translate(0,0)"><path d="M86 150 L70 214 L92 200 L104 150 Z" fill="#E8A33D"/><path d="M134 150 L150 214 L128 200 L116 150 Z" fill="#E8A33D"/><circle cx="190.0" cy="104.0" r="11" fill="#19B6A4"/><circle cx="186.1" cy="128.7" r="11" fill="#19B6A4"/><circle cx="174.7" cy="151.0" r="11" fill="#19B6A4"/><circle cx="157.0" cy="168.7" r="11" fill="#19B6A4"/><circle cx="134.7" cy="180.1" r="11" fill="#19B6A4"/><circle cx="110.0" cy="184.0" r="11" fill="#19B6A4"/><circle cx="85.3" cy="180.1" r="11" fill="#19B6A4"/><circle cx="63.0" cy="168.7" r="11" fill="#19B6A4"/><circle cx="45.3" cy="151.0" r="11" fill="#19B6A4"/><circle cx="33.9" cy="128.7" r="11" fill="#19B6A4"/><circle cx="30.0" cy="104.0" r="11" fill="#19B6A4"/><circle cx="33.9" cy="79.3" r="11" fill="#19B6A4"/><circle cx="45.3" cy="57.0" r="11" fill="#19B6A4"/><circle cx="63.0" cy="39.3" r="11" fill="#19B6A4"/><circle cx="85.3" cy="27.9" r="11" fill="#19B6A4"/><circle cx="110.0" cy="24.0" r="11" fill="#19B6A4"/><circle cx="134.7" cy="27.9" r="11" fill="#19B6A4"/><circle cx="157.0" cy="39.3" r="11" fill="#19B6A4"/><circle cx="174.7" cy="57.0" r="11" fill="#19B6A4"/><circle cx="186.1" cy="79.3" r="11" fill="#19B6A4"/><circle cx="110" cy="104" r="80" fill="#33D3C0"/><circle cx="110" cy="104" r="71" fill="none" stroke="#19B6A4" stroke-width="3" opacity="0.7"/><g transform="translate(78.9,31.7) scale(0.2260)"><path d="M96 172 C86 190 74 201 66 205 C71 197 75 189 79 182 C85 176 99 174 116 176 Z" fill="#0B5F57"/><path d="M122 56 C160 56 189 86 189 124 C189 164 160 193 120 193 C82 193 55 164 55 126 C55 86 84 56 122 56 Z" fill="#0B5F57"/><path d="M150 64 C150 42 130 28 106 33 C120 41 126 52 128 66 Z" fill="#0B5F57"/><path d="M186 100 L216 108 L186 116 Z" fill="#E8A33D"/><circle cx="158" cy="98" r="12" fill="#33D3C0"/></g><g transform="translate(80.2,134.3) scale(0.0580,-0.0580)"><path d="M332 543 116 35Q109 16 94.5 5.5Q80 -5 63 -5Q36 -5 23.0 10.0Q10 25 10 47Q10 56 13 66L262 664Q270 684 286.5 695.0Q303 706 322 704Q340 704 355.5 693.5Q371 683 378 664L624 78Q629 65 629 54Q629 27 611.5 11.0Q594 -5 573 -5Q555 -5 540.5 6.0Q526 17 518 36L303 537ZM147 157 202 272H472L491 157ZM877 0Q849 0 831.0 17.5Q813 35 813 61V565L827 543L754 489Q740 478 719 478Q695 478 677.0 496.0Q659 514 659 539Q659 571 690 591L834 687Q844 694 856.5 697.0Q869 700 880 700Q909 700 926.0 682.5Q943 665 943 639V61Q943 35 924.5 17.5Q906 0 877 0Z" fill="#0B5F57"/></g><path d="M110.0 146.0 L112.5 152.6 L119.5 152.9 L114.0 157.3 L115.9 164.1 L110.0 160.2 L104.1 164.1 L106.0 157.3 L100.5 152.9 L107.5 152.6 Z" fill="#E8A33D"/></g></svg>