<svg viewBox="0 0 764 300" xmlns="http://www.w3.org/2000/svg">
<rect width="764" height="300" fill="#FAF8F5"/>
<g transform="translate(-12.14,11.78) scale(1.1864)">
  <path d="M96 172 C86 190 74 201 66 205 C71 197 75 189 79 182 C85 176 99 174 116 176 Z" fill="#0F9D8C"/>
  <path d="M122 56 C160 56 189 86 189 124 C189 164 160 193 120 193 C82 193 55 164 55 126 C55 86 84 56 122 56 Z" fill="#0F9D8C"/>
  <path d="M150 64 C150 42 130 28 106 33 C120 41 126 52 128 66 Z" fill="#0F9D8C"/>
  <path d="M96 112 C132 106 158 126 156 160 C130 150 106 142 90 124 Z" fill="#2DD4BF"/>
  <path d="M186 96 L220 104 L186 113 Z" fill="#E8A33D"/>
  <path d="M186 118 L213 122 L186 127 Z" fill="#E8A33D"/>
  <circle cx="158" cy="98" r="11" fill="#FAF8F5"/>
  <circle cx="161" cy="98" r="5.5" fill="#0F9D8C"/>
</g>
<g transform="translate(310.00,196.50) scale(0.1500,-0.1500)"><path d="M133.25 700.75Q145.0 700.75 157.875 694.625Q170.75 688.5 177.75 678.25L431.75 291.0L389.25 292.5L647.75 678.25Q664.0 701.25 689.25 700.75Q709.25 700.5 724.75 686.375Q740.25 672.25 740.25 650.0V50.75Q740.25 29.25 725.875 14.625Q711.5 0.0 688.5 0.0Q665.25 0.0 650.625 14.625Q636.0 29.25 636.0 50.75V557.75L668 551L447.75 216.0Q440.5 206.75 429.5 200.25Q418.5 193.75 406.75 194.5Q395.75 193.75 384.5 200.25Q373.25 206.75 366 216L154.0 546.25L177.5 586.0V50.75Q177.5 29.25 164.0 14.625Q150.5 0.0 129 0Q108 0 94.625 14.625Q81.25 29.25 81.25 50.75V650.0Q81.25 670.5 96.375 685.625Q111.5 700.75 133.25 700.75ZM1297.25 530.0Q1319 530 1333.125 515.375Q1347.25 500.75 1347.25 479.25V49.0Q1347.25 -39.25 1313.625 -94.125Q1280 -149 1223.25 -174.5Q1166.5 -200.0 1095.5 -200.0Q1060 -200 1023.875 -193.5Q987.75 -187.0 964.75 -175.5Q940.5 -164.5 930.875 -148.125Q921.25 -131.75 927.5 -113.25Q935.25 -89.5 952.125 -80.875Q969.0 -72.25 987.25 -79.5Q1003.5 -85.75 1031.625 -97.125Q1059.75 -108.5 1096.0 -108.5Q1145.0 -108.5 1178.75 -92.375Q1212.5 -76.25 1230.25 -42.125Q1248 -8 1248 46V114.75L1264.25 90.5Q1248.0 58.25 1221.75 36.0Q1195.5 13.75 1160.375 1.875Q1125.25 -10.0 1082 -10Q1026.75 -10.0 987.25 14.5Q947.75 39.0 926.625 82.375Q905.5 125.75 905.5 182.25V479.25Q905.5 500.75 919.625 515.375Q933.75 530.0 955.5 530.0Q977.25 530.0 991.375 515.375Q1005.5 500.75 1005.5 479.25V209.25Q1005.5 142.75 1034.75 112.375Q1064 82 1121 82Q1158.5 82.0 1186.625 97.75Q1214.75 113.5 1231.0 142.375Q1247.25 171.25 1247.25 209.25V479.25Q1247.25 500.75 1261.375 515.375Q1275.5 530.0 1297.25 530.0ZM1771.75 537.5Q1843.0 537.5 1881.75 508.0Q1920.5 478.5 1936.0 429.125Q1951.5 379.75 1951.5 319.25V50.75Q1951.5 29.25 1937.25 14.625Q1923 0 1901.5 0.0Q1879.75 0.0 1865.625 14.625Q1851.5 29.25 1851.5 50.75V318.25Q1851.5 353.75 1841.5 382.375Q1831.5 411.0 1807.125 428.25Q1782.75 445.5 1739.25 445.5Q1698.25 445.5 1667.125 428.25Q1636 411 1618.25 382.375Q1600.5 353.75 1600.5 318.25V50.75Q1600.5 29.25 1586.25 14.625Q1572 0 1550.5 0.0Q1528.75 0.0 1514.625 14.625Q1500.5 29.25 1500.5 50.75V475.25Q1500.5 496.75 1514.75 511.375Q1529 526 1550.5 526.0Q1572.25 526.0 1586.375 511.375Q1600.5 496.75 1600.5 475.25V418.5L1583.0 408.75Q1589.75 430.5 1607.25 453.375Q1624.75 476.25 1649.75 495.375Q1674.75 514.5 1705.875 526.0Q1737.0 537.5 1771.75 537.5ZM2536.25 533.5Q2558.0 533.5 2572.125 519.25Q2586.25 505.0 2586.25 482.75V50.75Q2586.25 29.25 2572.0 14.625Q2557.75 0.0 2536.25 0.0Q2514.5 0.0 2500.375 14.625Q2486.25 29.25 2486.25 50.75V123.0L2506.75 119.5Q2506.75 101.75 2492.25 79.625Q2477.75 57.5 2452.75 37.25Q2427.75 17.0 2393.875 3.5Q2360 -10 2320.5 -10.0Q2252 -10 2196.875 25.375Q2141.75 60.75 2109.875 122.625Q2078.0 184.5 2078 264Q2078.0 344.5 2110.0 406.0Q2142.0 467.5 2196.375 502.5Q2250.75 537.5 2317.5 537.5Q2360.5 537.5 2397.0 523.875Q2433.5 510.25 2460.5 488.25Q2487.5 466.25 2502.375 441.5Q2517.25 416.75 2517.25 395.25L2486.25 391.75V482.75Q2486.25 504.25 2500.375 518.875Q2514.5 533.5 2536.25 533.5ZM2332.25 82.0Q2379.25 82.0 2415.0 105.875Q2450.75 129.75 2470.875 171.125Q2491.0 212.5 2491 264Q2491.0 315.5 2470.875 356.625Q2450.75 397.75 2415.0 421.625Q2379.25 445.5 2332.25 445.5Q2286.25 445.5 2250.5 421.875Q2214.75 398.25 2194.5 357.25Q2174.25 316.25 2174.25 264.0Q2174.25 212.5 2194.375 171.125Q2214.5 129.75 2250.25 105.875Q2286 82 2332.25 82.0Z" fill="#0F9D8C"/></g>
</svg>